<svg width="743" height="64" viewBox="0 0 743 64" fill="none" xmlns="http://www.w3.org/2000/svg">
<path d="M34 54.2734C34 53.0179 35.0179 52 36.2734 52H705.576C706.831 52 707.849 53.0179 707.849 54.2734C707.849 55.529 706.831 56.5469 705.576 56.5469H36.2734C35.0178 56.5469 34 55.529 34 54.2734Z" fill="#B3B3B3"/>
<path d="M2.88772 51.3229C2.41257 51.8231 2.17499 52.6983 2.17499 53.9487C2.17499 55.1991 2.41257 56.0744 2.88772 56.5746C3.22115 56.9247 3.65046 57.0997 4.17562 57.0997C4.70079 57.0997 5.13009 56.9247 5.46353 56.5746C5.93868 56.0744 6.17625 55.1991 6.17625 53.9487C6.17625 52.6983 5.93868 51.8231 5.46353 51.3229C5.13009 50.9728 4.70079 50.7977 4.17562 50.7977C3.65046 50.7977 3.22115 50.9728 2.88772 51.3229ZM1.68734 56.8871C1.20385 56.1703 0.962108 55.1908 0.962108 53.9487C0.962108 52.7067 1.20385 51.7272 1.68734 51.0103C2.26252 50.1434 3.09195 49.7099 4.17562 49.7099C5.2593 49.7099 6.08872 50.1434 6.66391 51.0103C7.14739 51.7272 7.38913 52.7067 7.38913 53.9487C7.38913 55.1908 7.14739 56.1703 6.66391 56.8871C6.08872 57.7541 5.2593 58.1876 4.17562 58.1876C3.09195 58.1876 2.26252 57.7541 1.68734 56.8871ZM9.21793 57.8124C9.05121 57.6457 8.96785 57.4415 8.96785 57.1997C8.96785 56.958 9.05121 56.7538 9.21793 56.5871C9.38465 56.412 9.58888 56.3245 9.83062 56.3245C10.0724 56.3245 10.2766 56.412 10.4433 56.5871C10.6184 56.7538 10.7059 56.958 10.7059 57.1997C10.7059 57.4415 10.6184 57.6457 10.4433 57.8124C10.2766 57.9792 10.0724 58.0625 9.83062 58.0625C9.58888 58.0625 9.38465 57.9792 9.21793 57.8124ZM9.20543 53.4111C9.03871 53.2443 8.95535 53.0401 8.95535 52.7984C8.95535 52.5566 9.03871 52.3524 9.20543 52.1857C9.37215 52.0106 9.57638 51.9231 9.81812 51.9231C10.0599 51.9231 10.2641 52.0106 10.4308 52.1857C10.6059 52.3524 10.6934 52.5566 10.6934 52.7984C10.6934 53.0401 10.6059 53.2443 10.4308 53.4111C10.2641 53.5778 10.0599 53.6611 9.81812 53.6611C9.57638 53.6611 9.37215 53.5778 9.20543 53.4111ZM14.195 51.3229C13.7198 51.8231 13.4823 52.6983 13.4823 53.9487C13.4823 55.1991 13.7198 56.0744 14.195 56.5746C14.5284 56.9247 14.9577 57.0997 15.4829 57.0997C16.0081 57.0997 16.4374 56.9247 16.7708 56.5746C17.246 56.0744 17.4835 55.1991 17.4835 53.9487C17.4835 52.6983 17.246 51.8231 16.7708 51.3229C16.4374 50.9728 16.0081 50.7977 15.4829 50.7977C14.9577 50.7977 14.5284 50.9728 14.195 51.3229ZM12.9946 56.8871C12.5111 56.1703 12.2694 55.1908 12.2694 53.9487C12.2694 52.7067 12.5111 51.7272 12.9946 51.0103C13.5698 50.1434 14.3992 49.7099 15.4829 49.7099C16.5666 49.7099 17.396 50.1434 17.9712 51.0103C18.4547 51.7272 18.6964 52.7067 18.6964 53.9487C18.6964 55.1908 18.4547 56.1703 17.9712 56.8871C17.396 57.7541 16.5666 58.1876 15.4829 58.1876C14.3992 58.1876 13.5698 57.7541 12.9946 56.8871ZM21.8146 51.3229C21.3394 51.8231 21.1019 52.6983 21.1019 53.9487C21.1019 55.1991 21.3394 56.0744 21.8146 56.5746C22.148 56.9247 22.5773 57.0997 23.1025 57.0997C23.6276 57.0997 24.057 56.9247 24.3904 56.5746C24.8655 56.0744 25.1031 55.1991 25.1031 53.9487C25.1031 52.6983 24.8655 51.8231 24.3904 51.3229C24.057 50.9728 23.6276 50.7977 23.1025 50.7977C22.5773 50.7977 22.148 50.9728 21.8146 51.3229ZM20.6142 56.8871C20.1307 56.1703 19.889 55.1908 19.889 53.9487C19.889 52.7067 20.1307 51.7272 20.6142 51.0103C21.1894 50.1434 22.0188 49.7099 23.1025 49.7099C24.1862 49.7099 25.0156 50.1434 25.5908 51.0103C26.0743 51.7272 26.316 52.7067 26.316 53.9487C26.316 55.1908 26.0743 56.1703 25.5908 56.8871C25.0156 57.7541 24.1862 58.1876 23.1025 58.1876C22.0188 58.1876 21.1894 57.7541 20.6142 56.8871Z" fill="#B3B3B3"/>
<path d="M718.016 53.8109L716.79 53.6608C716.782 53.5858 716.778 53.4774 716.778 53.3357C716.778 52.6105 717.032 51.9936 717.541 51.4851C718.049 50.9683 718.729 50.7099 719.579 50.7099C720.421 50.7099 721.088 50.9516 721.579 51.4351C722.071 51.9103 722.317 52.498 722.317 53.1982C722.317 54.2235 721.809 55.0571 720.792 55.699L719.191 56.7243C718.616 57.0911 718.287 57.4704 718.203 57.8621H722.367V59H716.69C716.707 58.3165 716.861 57.7163 717.153 57.1994C717.453 56.6826 717.941 56.2075 718.616 55.774L719.966 54.8987C720.708 54.4236 721.079 53.8609 721.079 53.2107C721.079 52.8105 720.946 52.4729 720.679 52.1979C720.412 51.9228 720.037 51.7852 719.554 51.7852C719.045 51.7852 718.658 51.9394 718.391 52.2479C718.124 52.5563 717.991 52.9564 717.991 53.4483C717.991 53.5233 717.999 53.6441 718.016 53.8109ZM724.071 58.8124C723.905 58.6457 723.821 58.4415 723.821 58.1997C723.821 57.958 723.905 57.7538 724.071 57.5871C724.238 57.412 724.442 57.3245 724.684 57.3245C724.926 57.3245 725.13 57.412 725.297 57.5871C725.472 57.7538 725.559 57.958 725.559 58.1997C725.559 58.4415 725.472 58.6457 725.297 58.8124C725.13 58.9792 724.926 59.0625 724.684 59.0625C724.442 59.0625 724.238 58.9792 724.071 58.8124ZM724.059 54.4111C723.892 54.2443 723.809 54.0401 723.809 53.7984C723.809 53.5566 723.892 53.3524 724.059 53.1857C724.226 53.0106 724.43 52.9231 724.672 52.9231C724.913 52.9231 725.118 53.0106 725.284 53.1857C725.459 53.3524 725.547 53.5566 725.547 53.7984C725.547 54.0401 725.459 54.2443 725.284 54.4111C725.118 54.5778 724.913 54.6611 724.672 54.6611C724.43 54.6611 724.226 54.5778 724.059 54.4111ZM726.935 56.7993L728.111 56.4492C728.144 56.9494 728.327 57.3536 728.661 57.6621C729.003 57.9705 729.428 58.1247 729.936 58.1247C730.428 58.1247 730.841 57.9747 731.174 57.6746C731.508 57.3745 731.674 56.9785 731.674 56.4867C731.674 55.9532 731.508 55.5406 731.174 55.2488C730.841 54.9571 730.424 54.8112 729.924 54.8112C729.315 54.8112 728.823 55.0071 728.448 55.3989C728.332 55.3572 728.14 55.2822 727.873 55.1738C727.606 55.0654 727.398 54.9821 727.248 54.9237L728.298 50.8974H732.575V52.0228H729.111L728.511 54.3485C728.869 53.9484 729.419 53.7483 730.161 53.7483C730.97 53.7483 731.628 53.9901 732.137 54.4736C732.654 54.9571 732.912 55.6114 732.912 56.4367C732.912 57.2203 732.637 57.8788 732.087 58.4123C731.537 58.9375 730.82 59.2001 729.936 59.2001C729.103 59.2001 728.407 58.9667 727.848 58.4998C727.298 58.033 726.994 57.4662 726.935 56.7993ZM735.899 52.3229C735.424 52.8231 735.186 53.6983 735.186 54.9487C735.186 56.1991 735.424 57.0744 735.899 57.5746C736.232 57.9247 736.662 58.0997 737.187 58.0997C737.712 58.0997 738.141 57.9247 738.475 57.5746C738.95 57.0744 739.187 56.1991 739.187 54.9487C739.187 53.6983 738.95 52.8231 738.475 52.3229C738.141 51.9728 737.712 51.7977 737.187 51.7977C736.662 51.7977 736.232 51.9728 735.899 52.3229ZM734.698 57.8871C734.215 57.1703 733.973 56.1908 733.973 54.9487C733.973 53.7067 734.215 52.7272 734.698 52.0103C735.274 51.1434 736.103 50.7099 737.187 50.7099C738.27 50.7099 739.1 51.1434 739.675 52.0103C740.158 52.7272 740.4 53.7067 740.4 54.9487C740.4 56.1908 740.158 57.1703 739.675 57.8871C739.1 58.7541 738.27 59.1876 737.187 59.1876C736.103 59.1876 735.274 58.7541 734.698 57.8871Z" fill="#B3B3B3"/>
<path d="M354 17C354 7.61116 361.611 0 371 0C380.389 0 388 7.61116 388 17C388 26.3888 380.389 34 371 34C361.611 34 354 26.3888 354 17Z" fill="white"/>
<path d="M366.77 23.3748L377.811 16.9998L366.77 10.6248V23.3748Z" fill="black"/>
<path d="M266.895 14.0134L267.653 13.1478C266.462 11.7413 264.731 10.9839 263 10.9839V12.0658C264.407 12.0658 265.813 12.715 266.787 13.797L266.895 14.0134ZM275.01 19.0988C273.712 19.0988 272.522 18.5578 271.548 17.6922L270.899 18.5578C271.981 19.6398 273.495 20.1808 275.01 20.1808V21.8038L278.797 19.6398L275.01 17.4758V19.0988ZM275.01 12.6068V14.2298L278.797 12.0658L275.01 9.90186V11.5249C273.279 11.5249 271.548 12.2822 270.466 13.6888L266.787 17.9086C265.813 18.9906 264.407 19.6398 263 19.6398V20.7218C264.731 20.7218 266.462 19.9644 267.544 18.5578L271.223 14.338C272.197 13.256 273.604 12.6068 275.01 12.6068Z" fill="white"/>
<path d="M326.82 10L318.164 14.9977V10.541H316V21.361H318.164V16.9042L326.82 21.902V10Z" fill="white"/>
<path d="M424.656 10.5365V14.9565L416 10V21.8036L424.656 16.8472V21.2671H426.82V10.5365H424.656Z" fill="white"/>
<path d="M468.869 12.705H473.738V14.328L477.525 12.164L473.738 10V11.623H468.869C466.164 11.623 464 13.787 464 16.492C464 17.1412 464.108 17.7904 464.433 18.4396L465.407 17.8986C465.19 17.4658 465.082 17.033 465.082 16.492C465.082 14.4362 466.813 12.705 468.869 12.705ZM478.715 14.5444L477.741 15.0854C477.958 15.5182 478.066 15.951 478.066 16.492C478.066 18.5478 476.335 20.279 474.279 20.279H469.41V18.656L465.623 20.82L469.41 22.984V21.361H474.279C476.984 21.361 479.148 19.197 479.148 16.492C479.148 15.8428 479.04 15.1936 478.715 14.5444Z" fill="white"/>
</svg>
